<svg width="40" height="40" viewBox="0 0 40 40" fill="none" xmlns="http://www.w3.org/2000/svg">
<path d="M33.3334 13.3334L23.3334 3.33337H10.0001C9.11603 3.33337 8.26818 3.68456 7.64306 4.30968C7.01794 4.93481 6.66675 5.78265 6.66675 6.66671V33.3334C6.66675 34.2174 7.01794 35.0653 7.64306 35.6904C8.26818 36.3155 9.11603 36.6667 10.0001 36.6667H30.0001C30.8841 36.6667 31.732 36.3155 32.3571 35.6904C32.9822 35.0653 33.3334 34.2174 33.3334 33.3334V13.3334ZM23.3334 3.33337L23.3334 13.3334H33.3334M26.6667 21.6667H13.3334M26.6667 28.3334H13.3334M16.6667 15H13.3334" stroke="#847E65" stroke-width="1.5" stroke-linecap="round" stroke-linejoin="round"/>
</svg>
