<svg xmlns="http://www.w3.org/2000/svg" width="63.57658" height="24.74226" viewBox="0 0 16.821303 6.5463898">
  <path transform="matrix(.26458 0 0 .26458 .13229174 .0640978)" style="fill:#fff;fill-rule:evenodd;stroke:none;stroke-width:1" d="M2.8502732 5.2768696V19.993391H59.725989V5.2768696z"/>
  <path style="fill:#c90117;fill-rule:evenodd;stroke:none;stroke-width:.26458332" d="M-150.38281 45.029733c-.21597 0-.37087.14752-.41269.37207h.74803c-.01-.23734-.15472-.37207-.33534-.37207M-149.08329 45.911653c0 .12515.0904.23403.24836.23403.2353 0 .39668-.24683.39668-.45868v-.0577h-.0712c-.15786 0-.57388.0226-.57388.28235M-142.87894 45.029732c-.21597 0-.37087.147523-.41251.372073h.74785c-.01-.237342-.1549-.372073-.33534-.372073" transform="translate(154.30946174 -41.9946622)"/>
  <path style="fill:#c90117;fill-rule:evenodd;stroke:none;stroke-width:.26458332" d="M-138.66152 42.126954c-.32072 0-3.09834.32431-7.23738.32431-4.13923 0-6.91685-.32431-7.23711-.32431-.52067 0-1.04116.32431-1.04116.876208v4.529206c0 .552082.52049.876392 1.04116.876392.32026 0 3.09788-.32431 7.23711-.32431 4.13904 0 6.91666.32431 7.23738.32431.52021 0 1.04107-.32431 1.04107-.876392v-4.529206c0-.551898-.52086-.876208-1.04107-.876208zm-13.42406 4.310638c-.29971 0-.66096-.128289-.66096-.394621v-.185714h.33201v.0993c0 .118717.16128.176327.33552.176327.16766 0 .29018-.06111.29018-.176327 0-.141265-.1611-.179825-.3804-.259798-.24197-.0866-.5192-.195745-.5192-.503306 0-.34336.34172-.465299.63856-.465299.23855 0 .59008.09276.59008.336642v.205317h-.33885v-.09635c0-.08642-.10318-.140896-.24817-.140896-.13538 0-.2516.05117-.2516.157185 0 .140988.16767.195746.35162.253264.25151.08016.54798.182953.54798.500085 0 .327163-.30943.494196-.68677.494196zm2.42813-.801757h-1.14777c.0258.310966.25159.474501.50633.474501.27057 0 .48034-.176051.48034-.176051l.15156.275627s-.24844.22768-.65762.22768c-.53853 0-.88035-.387995-.88035-.85633 0-.503307.34487-.853109.83177-.853109.47071 0 .72527.34336.72527.773044 0 .04482-.01.134638-.01.134638zm.72572.801757c-.28055 0-.54482-.163536-.54482-.497141 0-.499994.6641-.548493.9317-.548493h.10336v-.05761c0-.218109-.13547-.295045-.31276-.295045-.24863 0-.46442.157094-.46442.157094l-.14842-.269185s.2515-.199059.64495-.199059c.4386 0 .67067.224551.67067.641626v.66721c0 .04785.0258.07031.0711.07031h.15148v.291732h-.37735c-.14842 0-.20634-.07684-.20634-.173106V46.2066c0-.05439.01-.08982.01-.08982h-.007s-.13852.320813-.52225.320813zm3.37603-1.356416c-.28361 0-.42879.285198-.42879.589998v.436033h.24197v.291548h-.63209v-.974587c0-.182953-.0292-.342992-.23207-.342992-.29675 0-.43869.31069-.43869.60914v.416891h.24188v.291548h-.87378v-.291548h.24188v-.981305c0-.04473-.0258-.06746-.0711-.06746h-.18682v-.291732h.41898c.14204 0 .21292.06414.21292.182954v.07335c0 .03856-.006.07712-.006.07712h.006c.0838-.173015.2936-.371981.56417-.371981.23549 0 .40001.109146.46118.359281h.006c.0905-.192433.31285-.359281.57416-.359281.33857 0 .52882.195653.52882.622208v.756846h.2416v.291548h-.63208v-.974587c0-.192432-.0353-.342992-.23855-.342992zm1.72877 1.320984s-.0678.0097-.145.0097c-.25797 0-.49014-.08964-.49014-.519319v-1.384389h-.25788v-.291772h.64467v1.650264c0 .144393.0324.224551.1709.224551.0454 0 .0774-.0033.0774-.0033zm1.67362-.766325h-1.14813c.0259.310966.25187.474501.50633.474501.27094 0 .48061-.176051.48061-.176051l.15129.275627s-.24817.22768-.65734.22768c-.53872 0-.88091-.387995-.88091-.85633 0-.503307.34552-.853109.83224-.853109.47071 0 .72572.34336.72572.773044 0 .04482-.01.134638-.01.134638zm.88359.801757c-.29962 0-.66105-.128289-.66105-.394621v-.185714h.33247v.0993c0 .118717.16082.176327.33497.176327.16794 0 .29045-.06111.29045-.176327 0-.141265-.16146-.179825-.38095-.259798-.24151-.0866-.51883-.195746-.51883-.503307 0-.34336.34191-.465298.63857-.465298.23836 0 .58979.09276.58979.336642v.205317h-.33848v-.09635c0-.08642-.10326-.140897-.24817-.140897-.13565 0-.25131.05117-.25131.157186 0 .140988.16748.195745.35097.253264.25178.08016.54834.182953.54834.500085 0 .327163-.30915.494196-.68677.494196zm1.53196 0c-.2999 0-.66123-.128289-.66123-.394621v-.185714h.33246v.0993c0 .118717.16101.176327.33497.176327.16804 0 .29027-.06111.29027-.176327 0-.141265-.16137-.179825-.3804-.259798-.24178-.0866-.51929-.195746-.51929-.503307 0-.34336.34172-.465298.63847-.465298.23892 0 .59027.09276.59027.336642v.205317h-.33876v-.09635c0-.08642-.10299-.140897-.24808-.140897-.13547 0-.2515.05117-.2515.157186 0 .140988.16739.195745.35125.253264.25168.08016.54825.182953.54825.500085 0 .327163-.30971.494196-.68668.494196z" transform="translate(154.30946174 -41.9946622)"/>
</svg>
